<?xml version="1.0" standalone="no"?>
<!DOCTYPE svg PUBLIC "-//W3C//DTD SVG 20010904//EN"
 "http://www.w3.org/TR/2001/REC-SVG-20010904/DTD/svg10.dtd">
<svg version="1.0" xmlns="http://www.w3.org/2000/svg"
 width="300.000000pt" height="533.000000pt" viewBox="0 0 300.000000 533.000000"
 preserveAspectRatio="xMidYMid meet">
<metadata>
Created by potrace 1.10, written by Peter Selinger 2001-2011
</metadata>
<g transform="translate(0.000000,533.000000) scale(0.100000,-0.100000)"
fill="#000000" stroke="none">
<path d="M1382 2898 c-7 -7 -12 -38 -12 -70 0 -39 -4 -58 -12 -59 -95 -5 -117
-52 -85 -176 13 -50 13 -52 -12 -77 -21 -21 -24 -30 -15 -44 23 -37 53 -43
211 -40 142 3 154 4 175 25 l22 23 -22 29 -22 30 30 18 c17 9 39 35 50 57 15
31 21 36 26 23 3 -9 4 -23 1 -31 -3 -8 3 -26 14 -40 18 -23 27 -26 88 -26 84
0 106 17 109 83 2 38 -1 48 -24 66 -37 29 -125 29 -161 1 -32 -25 -43 -25 -43
-1 0 22 -42 55 -80 64 -97 23 -95 22 -98 52 -1 17 -8 41 -14 53 -22 43 -99 67
-126 40z m34 -62 c-1 -57 -11 -80 -22 -52 -3 9 -1 23 6 31 10 12 10 18 0 30
-13 15 -7 45 8 45 5 0 9 -24 8 -54z m38 23 c3 -17 2 -39 -4 -48 -6 -12 -5 -22
2 -29 6 -6 8 -18 4 -28 -11 -29 -18 -9 -22 65 -3 72 8 96 20 40z m37 -38 c-5
-9 -7 -28 -4 -42 3 -15 0 -30 -7 -34 -8 -5 -11 -3 -8 6 3 8 1 22 -4 32 -6 12
-6 23 1 31 6 8 8 22 4 32 -6 17 -5 17 10 5 11 -9 14 -18 8 -30z m104 -102 c4
-6 14 -8 22 -5 28 11 53 -13 53 -50 0 -39 -44 -94 -75 -94 -10 0 -26 -11 -37
-25 -18 -23 -25 -25 -112 -25 -121 0 -135 14 -150 148 l-7 62 150 0 c95 0 152
-4 156 -11z m300 -66 c0 -15 -10 -18 -72 -21 -70 -3 -73 -2 -73 20 0 22 3 23
72 21 63 -1 73 -4 73 -20z m3 -60 c-3 -15 -16 -19 -76 -21 -67 -3 -72 -1 -72
18 0 18 6 20 76 20 66 0 75 -2 72 -17z m-278 -108 c0 -13 -26 -15 -174 -15
-159 0 -198 5 -179 24 3 3 84 6 180 6 147 0 173 -2 173 -15z"/>
<path d="M1596 2678 c-11 -36 -14 -78 -6 -78 20 0 51 42 48 63 -3 24 -36 36
-42 15z"/>
<path d="M2232 2823 c-12 -5 -57 -83 -53 -93 6 -14 -35 -143 -47 -147 -14 -6
-52 24 -52 40 0 5 18 29 40 53 46 50 49 72 15 97 -22 16 -27 16 -53 3 -45 -23
-143 -135 -140 -158 3 -21 85 -104 170 -171 40 -32 51 -36 68 -27 27 14 34 31
65 141 33 117 40 127 72 98 12 -13 23 -27 23 -32 0 -5 -18 -29 -40 -53 -22
-24 -40 -50 -40 -57 0 -19 38 -57 56 -57 21 0 164 142 164 162 0 25 -58 89
-137 151 -70 55 -84 61 -111 50z m35 -21 c15 -9 -86 -362 -104 -362 -24 0 -22
20 16 151 22 74 44 153 50 177 12 43 17 47 38 34z m-141 -56 c3 -8 -18 -35
-51 -67 l-56 -53 58 -58 c44 -45 54 -61 45 -70 -9 -9 -27 3 -79 52 -38 35 -70
66 -72 67 -6 5 131 143 142 143 4 0 10 -6 13 -14z m258 -55 l69 -69 -68 -64
c-37 -34 -72 -63 -78 -63 -25 0 -13 25 38 75 l55 54 -56 57 c-49 49 -62 79
-36 79 4 0 38 -31 76 -69z"/>
<path d="M613 2782 c-13 -2 -32 -15 -43 -29 -17 -22 -20 -41 -20 -128 0 -79
-3 -105 -15 -115 -23 -19 -18 -46 11 -69 25 -20 40 -21 210 -21 176 0 184 1
204 22 24 26 25 37 5 74 -10 20 -15 59 -15 120 0 77 -3 95 -20 117 -20 25 -24
26 -158 29 -75 2 -147 2 -159 0z m295 -44 c8 -8 12 -48 12 -115 l0 -103 -170
0 -170 0 0 103 c0 67 4 107 12 115 8 8 58 12 158 12 100 0 150 -4 158 -12z
m40 -261 c-3 -17 -18 -18 -198 -18 -180 0 -195 1 -198 18 -3 17 10 18 198 18
188 0 201 -1 198 -18z"/>
<path d="M620 2630 l0 -80 130 0 130 0 0 80 0 80 -130 0 -130 0 0 -80z m208
41 c8 -5 12 -22 10 -42 l-3 -34 -85 0 -85 0 -3 30 c-3 19 2 33 14 42 20 14
131 18 152 4z"/>
<path d="M1052 2687 c-23 -23 -42 -52 -42 -62 0 -25 76 -105 99 -105 23 0 101
81 101 105 0 22 -81 105 -102 105 -8 0 -33 -19 -56 -43z m78 -18 c0 -28 2 -31
25 -25 22 6 25 3 25 -19 0 -20 -5 -25 -25 -25 -20 0 -25 -5 -25 -25 0 -18 -5
-25 -20 -25 -15 0 -20 7 -20 24 0 19 -6 25 -27 28 -20 2 -28 9 -28 23 0 16 6
19 28 17 24 -2 27 0 27 28 0 23 4 30 20 30 16 0 20 -7 20 -31z"/>
</g>
</svg>
