<?xml version="1.0" encoding="UTF-8"?>
<svg version="1.1" xmlns="http://www.w3.org/2000/svg" width="512" height="512">
<path d="M0 0 C1.01545898 0.19867676 2.03091797 0.39735352 3.07714844 0.60205078 C52.9758035 10.58327711 96.53871388 34.88580573 133 70 C133.7940625 70.7528125 134.588125 71.505625 135.40625 72.28125 C140.75597303 77.46114055 145.38660506 83.16405541 150 89 C151.19109375 90.48306641 151.19109375 90.48306641 152.40625 91.99609375 C175.32205725 121.03970389 191.22147176 154.85685587 199.6875 190.8125 C199.97306763 191.99936401 199.97306763 191.99936401 200.2644043 193.21020508 C204.22851721 210.89052902 205.555362 228.61292655 205.4375 246.6875 C205.43293793 248.18546112 205.43293793 248.18546112 205.42828369 249.71368408 C205.35621635 265.78341917 204.43972751 281.25213186 201 297 C200.78037598 298.02625488 200.56075195 299.05250977 200.33447266 300.10986328 C191.83138831 338.85817193 174.61772522 375.56726438 149 406 C148.57138672 406.51739746 148.14277344 407.03479492 147.70117188 407.56787109 C137.18164284 420.2564129 126.03816903 431.86528878 113 442 C111.52660156 443.18142578 111.52660156 443.18142578 110.0234375 444.38671875 C79.03075655 469.0530687 42.45229279 485.30136285 3.75 493.25 C3.01966553 493.40114258 2.28933105 493.55228516 1.53686523 493.70800781 C-13.82073758 496.67407563 -29.02143327 497.37492896 -44.625 497.3125 C-45.59588562 497.31034485 -46.56677124 497.3081897 -47.56707764 497.30596924 C-61.90585186 497.25491637 -75.90546967 496.85949913 -90 494 C-91.01545898 493.80132324 -92.03091797 493.60264648 -93.07714844 493.39794922 C-142.9758035 483.41672289 -186.53871388 459.11419427 -223 424 C-223.7940625 423.2471875 -224.588125 422.494375 -225.40625 421.71875 C-230.75597303 416.53885945 -235.38660506 410.83594459 -240 405 C-240.7940625 404.01128906 -241.588125 403.02257812 -242.40625 402.00390625 C-266.9776499 370.86198961 -283.32468106 334.48759715 -291.25 295.6875 C-291.47671387 294.57942993 -291.47671387 294.57942993 -291.70800781 293.44897461 C-292.18439803 290.97158418 -292.60252786 288.49133778 -293 286 C-293.17805176 284.88423584 -293.35610352 283.76847168 -293.53955078 282.61889648 C-295.19998488 270.98027732 -295.3987437 259.43103747 -295.375 247.6875 C-295.37445618 246.6738739 -295.37391235 245.6602478 -295.37335205 244.61590576 C-295.33347417 228.41878779 -294.46747801 212.87491635 -291 197 C-290.78037598 195.97374512 -290.56075195 194.94749023 -290.33447266 193.89013672 C-279.82149525 145.98280374 -255.85138923 104.15003587 -222 69 C-221.2471875 68.2059375 -220.494375 67.411875 -219.71875 66.59375 C-214.53885945 61.24402697 -208.83594459 56.61339494 -203 52 C-202.01128906 51.2059375 -201.02257812 50.411875 -200.00390625 49.59375 C-167.66655102 24.07913264 -130.33332447 7.86607287 -90 0 C-89.17274414 -0.16661133 -88.34548828 -0.33322266 -87.49316406 -0.50488281 C-59.91781494 -5.80488028 -27.50199116 -5.57960557 0 0 Z " fill="#D54852" transform="translate(301,9)"/>
<path d="M0 0 C1.15752278 0.00771534 1.15752278 0.00771534 2.33842987 0.01558656 C3.15614362 0.01317214 3.97385738 0.01075772 4.81635034 0.00827014 C7.57179114 0.00260906 10.32700258 0.01131433 13.08243316 0.01990479 C15.05152459 0.01883251 17.0206157 0.01689465 18.9897055 0.01415223 C24.34901841 0.00929237 29.70824843 0.01697353 35.06755131 0.02710527 C40.66450627 0.03586606 46.26145847 0.03412872 51.85841888 0.03374451 C61.25797427 0.03468198 70.65749745 0.04337746 80.05704254 0.05701417 C90.94066599 0.07274512 101.82425413 0.07801216 112.70788813 0.07727861 C123.15808875 0.07666928 133.60827781 0.08176576 144.05847496 0.09007043 C148.51501503 0.09361055 152.97155101 0.09543471 157.42809242 0.09596413 C162.6704305 0.09696516 167.91273868 0.10304197 173.15506691 0.11313027 C175.0848778 0.11606291 177.01469212 0.11727911 178.94450516 0.11670274 C181.567138 0.11621566 184.18968577 0.12183183 186.81230682 0.12911195 C187.97317569 0.12678904 187.97317569 0.12678904 189.15749645 0.12441921 C194.39769795 0.14864614 194.39769795 0.14864614 195.51187652 1.26282471 C195.60896723 3.54106217 195.63374256 5.82237894 195.63213104 8.10268372 C195.63341268 9.18814851 195.63341268 9.18814851 195.63472021 10.29554188 C195.63637714 12.73851818 195.63085017 15.18142693 195.62540191 17.62439698 C195.62512006 19.36836466 195.62527774 21.11233245 195.62584442 22.85630006 C195.62613247 27.60609966 195.62023449 32.35587424 195.61327046 37.10566801 C195.60703821 42.06380893 195.60643323 47.02195037 195.60524505 51.98009461 C195.60213136 61.37592299 195.59391745 70.7717398 195.58389556 80.16756308 C195.57273562 90.86145621 195.56722428 101.55534988 195.56220013 112.24924737 C195.55173487 134.25377962 195.53413469 156.25830144 195.51187652 178.26282471 C196.35895172 178.24711426 197.20602691 178.23140382 198.07877105 178.21521729 C201.24329857 178.16386901 204.4076126 178.126368 207.5724234 178.09802979 C208.93805469 178.08301043 210.30363829 178.06258864 211.66910309 178.03650635 C213.63991557 177.99982335 215.61109061 177.9846392 217.58218902 177.96985596 C218.76570953 177.95414551 219.94923004 177.93843507 221.1686148 177.92224854 C225.72452301 178.38635632 229.08140256 179.87015815 232.36856598 183.0704419 C233.87759093 185.96410923 233.85271992 188.08547376 233.80484527 191.34094971 C233.7951773 192.50110596 233.78550934 193.66126221 233.7755484 194.85657471 C233.75041168 196.06313721 233.72527496 197.26969971 233.69937652 198.51282471 C233.68584137 199.73485596 233.67230621 200.95688721 233.6583609 202.21594971 C233.62301633 205.23201969 233.57367212 208.24719959 233.51187652 211.26282471 C234.72246734 211.24711426 235.93305816 211.23140382 237.18033355 211.21521729 C241.6866131 211.16077503 246.19286376 211.12642264 250.69937652 211.09802979 C252.64701746 211.08297572 254.59462468 211.06252791 256.54214996 211.03650635 C259.3472478 210.99997418 262.15189606 210.98306438 264.95718902 210.96985596 C266.25597488 210.94663018 266.25597488 210.94663018 267.58099884 210.92293519 C273.35338183 210.92134086 277.75777289 211.69189187 282.15640777 215.79798096 C286.16958411 221.04598079 286.67071514 224.04217552 286.70474762 230.53284425 C286.71292511 231.38835374 286.7211026 232.24386323 286.72952789 233.12529725 C286.75440167 235.96540343 286.77090599 238.80545943 286.78531402 241.64563721 C286.7906377 242.61571591 286.79596138 243.58579461 286.80144638 244.58526963 C286.8281909 249.72322267 286.84755869 254.86115133 286.86197418 259.99915284 C286.87859447 265.29869586 286.92334663 270.59761368 286.97434562 275.89692086 C287.00806143 279.97711595 287.01955657 284.05716373 287.02520126 288.13748521 C287.03190538 290.09026443 287.04710553 292.04303424 287.07109207 293.99567765 C287.10282966 296.73644254 287.10276724 299.47553642 287.09537262 302.216438 C287.11177795 303.01674943 287.12818329 303.81706086 287.14508575 304.64162415 C287.07998781 310.56541904 285.35871288 314.7299299 281.51187652 319.26282471 C278.19761758 322.43465241 275.78462285 322.63919595 271.26276153 322.64377564 C269.97856827 322.65223511 268.694375 322.66069459 267.37126678 322.66941041 C265.95019923 322.66357757 264.52913293 322.65743307 263.10806793 322.65100831 C261.60983914 322.65507394 260.11161335 322.66041578 258.61339325 322.66693848 C254.54510048 322.68062132 250.47703582 322.67530888 246.40873903 322.66580123 C242.15009232 322.65820682 237.89146516 322.66524989 233.63281769 322.66995972 C226.47886153 322.6754191 219.32499826 322.66822214 212.17105621 322.653938 C203.90493849 322.63762358 195.63904289 322.64289042 187.37293059 322.65941721 C180.27385718 322.67304179 173.17485056 322.67494662 166.07576829 322.6671012 C161.83679919 322.66242842 157.59793438 322.66178871 153.35897201 322.67171067 C149.3714659 322.68039177 145.38424529 322.67433768 141.39676994 322.6570279 C139.93508958 322.65306861 138.4733851 322.65418758 137.0117144 322.66081589 C135.01280473 322.66904302 133.01384241 322.65688548 131.0149588 322.64377564 C129.89741022 322.64264457 128.77986164 322.64151349 127.62844795 322.64034814 C122.75737663 322.05029475 119.51561757 320.34795017 116.19937652 316.76282471 C113.69150541 313.0474601 113.39004546 310.31424792 113.41422027 305.93860596 C113.41905426 304.39656495 113.41905426 304.39656495 113.4239859 302.82337159 C113.43655426 301.21558839 113.43655426 301.21558839 113.44937652 299.57532471 C113.45388824 298.49186768 113.45839996 297.40841065 113.4630484 296.29212159 C113.47483909 293.61563386 113.49129589 290.93925695 113.51187652 288.26282471 C112.59470069 288.26559009 112.59470069 288.26559009 111.65899605 288.26841134 C96.79550533 288.31253956 81.93202091 288.34565649 67.06848091 288.36644906 C59.88064357 288.3767709 52.6928499 288.39084851 45.50504059 288.41370362 C39.24168516 288.43360978 32.97836136 288.44653454 26.71497518 288.4510017 C23.39715544 288.45361382 20.07944751 288.46081303 16.76165146 288.47428483 C13.06196393 288.4887154 9.36246638 288.4908062 5.66275543 288.4898755 C4.5572081 288.49706605 3.45166076 288.5042566 2.312612 288.51166505 C1.30857834 288.50891572 0.30454468 288.50616639 -0.72991425 288.50333375 C-2.04346925 288.50609913 -2.04346925 288.50609913 -3.38356072 288.50892037 C-5.48812348 288.26282471 -5.48812348 288.26282471 -7.48812348 286.26282471 C-7.7388218 284.19571275 -7.7388218 284.19571275 -7.73980576 281.58698243 C-7.74502125 280.59494939 -7.75023675 279.60291634 -7.75561029 278.58082169 C-7.75114884 277.4829823 -7.7466874 276.38514291 -7.74209076 275.25403565 C-7.74521074 274.09400906 -7.74833072 272.93398247 -7.75154525 271.73880357 C-7.75816431 268.50908563 -7.75575227 265.27951681 -7.74957281 262.04980248 C-7.74506353 258.57054933 -7.75202448 255.09131695 -7.75753266 251.61206788 C-7.76644466 244.79233737 -7.76449663 237.97265078 -7.75870737 231.15291852 C-7.75419798 225.61236111 -7.75357484 220.07181605 -7.75575501 214.53125733 C-7.75606147 213.74390316 -7.75636794 212.956549 -7.75668369 212.14533561 C-7.75732312 210.54604214 -7.75797154 208.94674867 -7.75862888 207.3474552 C-7.76433746 192.33669211 -7.757766 177.3259534 -7.74702814 162.31519431 C-7.73809215 149.42402764 -7.73964404 136.53289698 -7.74886566 123.64173096 C-7.75955898 108.68615471 -7.76378809 93.73059985 -7.75764114 78.7750203 C-7.75700401 77.18147757 -7.75637527 75.58793484 -7.75575501 73.9943921 C-7.75544646 73.21025618 -7.75513791 72.42612026 -7.75482 71.61822265 C-7.75309024 66.08174203 -7.75601421 60.54527493 -7.76071411 55.00879639 C-7.76631254 48.26537374 -7.76482848 41.52199766 -7.75415263 34.77858037 C-7.74888184 31.33533954 -7.74686293 27.89217649 -7.75345093 24.44893616 C-7.75887403 20.72308315 -7.75211169 16.99745243 -7.74209076 13.27161378 C-7.74655221 12.17377438 -7.75101365 11.07593499 -7.75561029 9.94482774 C-7.75039479 8.95279469 -7.7451793 7.96076165 -7.73980576 6.938667 C-7.73948105 6.077786 -7.73915635 5.21690499 -7.7388218 4.32993668 C-7.16841072 -0.37333994 -3.98107732 0.02615285 0 0 Z " fill="#DD4359" transform="translate(116.48812347650528,94.73717528581619)"/>
<path d="M0 0 C1.15752278 0.00771534 1.15752278 0.00771534 2.33842987 0.01558656 C3.15614362 0.01317214 3.97385738 0.01075772 4.81635034 0.00827014 C7.57179114 0.00260906 10.32700258 0.01131433 13.08243316 0.01990479 C15.05152459 0.01883251 17.0206157 0.01689465 18.9897055 0.01415223 C24.34901841 0.00929237 29.70824843 0.01697353 35.06755131 0.02710527 C40.66450627 0.03586606 46.26145847 0.03412872 51.85841888 0.03374451 C61.25797427 0.03468198 70.65749745 0.04337746 80.05704254 0.05701417 C90.94066599 0.07274512 101.82425413 0.07801216 112.70788813 0.07727861 C123.15808875 0.07666928 133.60827781 0.08176576 144.05847496 0.09007043 C148.51501503 0.09361055 152.97155101 0.09543471 157.42809242 0.09596413 C162.6704305 0.09696516 167.91273868 0.10304197 173.15506691 0.11313027 C175.0848778 0.11606291 177.01469212 0.11727911 178.94450516 0.11670274 C181.567138 0.11621566 184.18968577 0.12183183 186.81230682 0.12911195 C187.97317569 0.12678904 187.97317569 0.12678904 189.15749645 0.12441921 C194.39769795 0.14864614 194.39769795 0.14864614 195.51187652 1.26282471 C195.60896723 3.54106217 195.63374256 5.82237894 195.63213104 8.10268372 C195.63341268 9.18814851 195.63341268 9.18814851 195.63472021 10.29554188 C195.63637714 12.73851818 195.63085017 15.18142693 195.62540191 17.62439698 C195.62512006 19.36836466 195.62527774 21.11233245 195.62584442 22.85630006 C195.62613247 27.60609966 195.62023449 32.35587424 195.61327046 37.10566801 C195.60703821 42.06380893 195.60643323 47.02195037 195.60524505 51.98009461 C195.60213136 61.37592299 195.59391745 70.7717398 195.58389556 80.16756308 C195.57273562 90.86145621 195.56722428 101.55534988 195.56220013 112.24924737 C195.55173487 134.25377962 195.53413469 156.25830144 195.51187652 178.26282471 C196.35895172 178.24711426 197.20602691 178.23140382 198.07877105 178.21521729 C201.24329857 178.16386901 204.4076126 178.126368 207.5724234 178.09802979 C208.93805469 178.08301043 210.30363829 178.06258864 211.66910309 178.03650635 C213.63991557 177.99982335 215.61109061 177.9846392 217.58218902 177.96985596 C218.76570953 177.95414551 219.94923004 177.93843507 221.1686148 177.92224854 C225.72452301 178.38635632 229.08140256 179.87015815 232.36856598 183.0704419 C233.87759093 185.96410923 233.85271992 188.08547376 233.80484527 191.34094971 C233.7951773 192.50110596 233.78550934 193.66126221 233.7755484 194.85657471 C233.75041168 196.06313721 233.72527496 197.26969971 233.69937652 198.51282471 C233.68584137 199.73485596 233.67230621 200.95688721 233.6583609 202.21594971 C233.62301633 205.23201969 233.57367212 208.24719959 233.51187652 211.26282471 C234.72246734 211.24711426 235.93305816 211.23140382 237.18033355 211.21521729 C241.6866131 211.16077503 246.19286376 211.12642264 250.69937652 211.09802979 C252.64701746 211.08297572 254.59462468 211.06252791 256.54214996 211.03650635 C259.3472478 210.99997418 262.15189606 210.98306438 264.95718902 210.96985596 C266.25597488 210.94663018 266.25597488 210.94663018 267.58099884 210.92293519 C273.35338183 210.92134086 277.75777289 211.69189187 282.15640777 215.79798096 C286.16958411 221.04598079 286.67071514 224.04217552 286.70474762 230.53284425 C286.71292511 231.38835374 286.7211026 232.24386323 286.72952789 233.12529725 C286.75440167 235.96540343 286.77090599 238.80545943 286.78531402 241.64563721 C286.7906377 242.61571591 286.79596138 243.58579461 286.80144638 244.58526963 C286.8281909 249.72322267 286.84755869 254.86115133 286.86197418 259.99915284 C286.87859447 265.29869586 286.92334663 270.59761368 286.97434562 275.89692086 C287.00806143 279.97711595 287.01955657 284.05716373 287.02520126 288.13748521 C287.03190538 290.09026443 287.04710553 292.04303424 287.07109207 293.99567765 C287.10282966 296.73644254 287.10276724 299.47553642 287.09537262 302.216438 C287.11177795 303.01674943 287.12818329 303.81706086 287.14508575 304.64162415 C287.07998781 310.56541904 285.35871288 314.7299299 281.51187652 319.26282471 C278.19761758 322.43465241 275.78462285 322.63919595 271.26276153 322.64377564 C269.97856827 322.65223511 268.694375 322.66069459 267.37126678 322.66941041 C265.95019923 322.66357757 264.52913293 322.65743307 263.10806793 322.65100831 C261.60983914 322.65507394 260.11161335 322.66041578 258.61339325 322.66693848 C254.54510048 322.68062132 250.47703582 322.67530888 246.40873903 322.66580123 C242.15009232 322.65820682 237.89146516 322.66524989 233.63281769 322.66995972 C226.47886153 322.6754191 219.32499826 322.66822214 212.17105621 322.653938 C203.90493849 322.63762358 195.63904289 322.64289042 187.37293059 322.65941721 C180.27385718 322.67304179 173.17485056 322.67494662 166.07576829 322.6671012 C161.83679919 322.66242842 157.59793438 322.66178871 153.35897201 322.67171067 C149.3714659 322.68039177 145.38424529 322.67433768 141.39676994 322.6570279 C139.93508958 322.65306861 138.4733851 322.65418758 137.0117144 322.66081589 C135.01280473 322.66904302 133.01384241 322.65688548 131.0149588 322.64377564 C129.89741022 322.64264457 128.77986164 322.64151349 127.62844795 322.64034814 C122.75737663 322.05029475 119.51561757 320.34795017 116.19937652 316.76282471 C113.69150541 313.0474601 113.39004546 310.31424792 113.41422027 305.93860596 C113.41905426 304.39656495 113.41905426 304.39656495 113.4239859 302.82337159 C113.43655426 301.21558839 113.43655426 301.21558839 113.44937652 299.57532471 C113.45388824 298.49186768 113.45839996 297.40841065 113.4630484 296.29212159 C113.47483909 293.61563386 113.49129589 290.93925695 113.51187652 288.26282471 C112.59470069 288.26559009 112.59470069 288.26559009 111.65899605 288.26841134 C96.79550533 288.31253956 81.93202091 288.34565649 67.06848091 288.36644906 C59.88064357 288.3767709 52.6928499 288.39084851 45.50504059 288.41370362 C39.24168516 288.43360978 32.97836136 288.44653454 26.71497518 288.4510017 C23.39715544 288.45361382 20.07944751 288.46081303 16.76165146 288.47428483 C13.06196393 288.4887154 9.36246638 288.4908062 5.66275543 288.4898755 C4.5572081 288.49706605 3.45166076 288.5042566 2.312612 288.51166505 C1.30857834 288.50891572 0.30454468 288.50616639 -0.72991425 288.50333375 C-2.04346925 288.50609913 -2.04346925 288.50609913 -3.38356072 288.50892037 C-5.48812348 288.26282471 -5.48812348 288.26282471 -7.48812348 286.26282471 C-7.7388218 284.19571275 -7.7388218 284.19571275 -7.73980576 281.58698243 C-7.74502125 280.59494939 -7.75023675 279.60291634 -7.75561029 278.58082169 C-7.75114884 277.4829823 -7.7466874 276.38514291 -7.74209076 275.25403565 C-7.74521074 274.09400906 -7.74833072 272.93398247 -7.75154525 271.73880357 C-7.75816431 268.50908563 -7.75575227 265.27951681 -7.74957281 262.04980248 C-7.74506353 258.57054933 -7.75202448 255.09131695 -7.75753266 251.61206788 C-7.76644466 244.79233737 -7.76449663 237.97265078 -7.75870737 231.15291852 C-7.75419798 225.61236111 -7.75357484 220.07181605 -7.75575501 214.53125733 C-7.75606147 213.74390316 -7.75636794 212.956549 -7.75668369 212.14533561 C-7.75732312 210.54604214 -7.75797154 208.94674867 -7.75862888 207.3474552 C-7.76433746 192.33669211 -7.757766 177.3259534 -7.74702814 162.31519431 C-7.73809215 149.42402764 -7.73964404 136.53289698 -7.74886566 123.64173096 C-7.75955898 108.68615471 -7.76378809 93.73059985 -7.75764114 78.7750203 C-7.75700401 77.18147757 -7.75637527 75.58793484 -7.75575501 73.9943921 C-7.75544646 73.21025618 -7.75513791 72.42612026 -7.75482 71.61822265 C-7.75309024 66.08174203 -7.75601421 60.54527493 -7.76071411 55.00879639 C-7.76631254 48.26537374 -7.76482848 41.52199766 -7.75415263 34.77858037 C-7.74888184 31.33533954 -7.74686293 27.89217649 -7.75345093 24.44893616 C-7.75887403 20.72308315 -7.75211169 16.99745243 -7.74209076 13.27161378 C-7.74655221 12.17377438 -7.75101365 11.07593499 -7.75561029 9.94482774 C-7.75039479 8.95279469 -7.7451793 7.96076165 -7.73980576 6.938667 C-7.73948105 6.077786 -7.73915635 5.21690499 -7.7388218 4.32993668 C-7.16841072 -0.37333994 -3.98107732 0.02615285 0 0 Z M-0.48812348 6.26282471 C-0.48812348 97.01282471 -0.48812348 187.76282471 -0.48812348 281.26282471 C37.13187652 281.26282471 74.75187652 281.26282471 113.51187652 281.26282471 C113.6822747 262.11624439 113.6822747 262.11624439 113.80972809 242.96936768 C113.83909926 240.56456305 113.8699253 238.15977556 113.90250152 235.75501221 C113.90362945 234.511792 113.90475738 233.26857178 113.90591949 231.98767823 C114.0908749 220.81592062 114.0908749 220.81592062 118.51187652 216.26282471 C123.55457085 211.79763784 127.86124189 211.66234076 134.28531402 211.65344971 C135.20905823 211.63691346 136.13280243 211.6203772 137.08453888 211.60333985 C140.01871983 211.55497235 142.9523829 211.53351388 145.88687652 211.51282471 C147.88299617 211.48465563 149.87909181 211.45472689 151.87515777 211.42298096 C156.75402137 211.34921632 161.63259938 211.29957294 166.51187652 211.26282471 C166.51598541 210.50139161 166.5200943 209.7399585 166.5243277 208.95545167 C166.55728792 205.49462806 166.62793706 202.03555901 166.69937652 198.57532471 C166.7080777 196.77804932 166.7080777 196.77804932 166.71695465 194.94446534 C166.96559499 185.02647836 166.96559499 185.02647836 169.93765777 181.99329346 C176.75204598 177.41245284 176.8543762 179.09550331 188.51187652 178.26282471 C188.51187652 121.50282471 188.51187652 64.74282471 188.51187652 6.26282471 C126.14187652 6.26282471 63.77187652 6.26282471 -0.48812348 6.26282471 Z " fill="#FDF9F9" transform="translate(116.48812347650528,94.73717528581619)"/>
<path d="M0 0 C8.91 0 17.82 0 27 0 C27.66 2.97 28.32 5.94 29 9 C31.79982615 12.02086506 33.81694084 12.86232329 37.88671875 13.3359375 C43.54420351 13.51686567 47.31946662 13.44753325 52 10 C54.56873679 6.61430493 54.56873679 6.61430493 55 0 C71.17 0 87.34 0 104 0 C104.99 4.455 104.99 4.455 106 9 C108.66994331 12.05069227 110.16099365 12.86812648 114.15625 13.49609375 C115.2596875 13.47675781 116.363125 13.45742188 117.5 13.4375 C118.6034375 13.43621094 119.706875 13.43492187 120.84375 13.43359375 C124.2933946 12.95969455 126.20653773 12.03983036 129 10 C131.29157743 6.67721273 131.28962708 4.2622375 132 0 C140.91 0 149.82 0 159 0 C159.10494762 7.46993852 159.20509833 14.937198 159.25875092 22.40723419 C159.28512245 25.88598768 159.32034225 29.36412911 159.37719727 32.8425293 C159.44206834 36.83648499 159.46620862 40.82979558 159.48828125 44.82421875 C159.51408768 46.06709152 159.5398941 47.30996429 159.56648254 48.59049988 C159.5668602 49.75132584 159.56723785 50.91215179 159.56762695 52.1081543 C159.57873001 53.12741501 159.58983307 54.14667572 159.60127258 55.19682312 C158.76470225 59.09697538 157.04321019 60.47896144 154 63 C151.05332851 63.6292057 151.05332851 63.6292057 147.73106384 63.63491821 C146.46784805 63.64901733 145.20463226 63.66311646 143.90313721 63.67764282 C142.51086066 63.66792221 141.11858766 63.65768142 139.72631836 63.64697266 C138.2542462 63.65375075 136.78218253 63.66265497 135.31013489 63.67352295 C131.31834229 63.69629867 127.32719648 63.68748806 123.33539271 63.67162752 C119.15721704 63.65896178 114.97909645 63.67071028 110.80091858 63.67855835 C103.78571637 63.68765197 96.77077746 63.67567362 89.75561523 63.65185547 C81.64437241 63.62463396 73.53375777 63.63346663 65.42253011 63.6609875 C58.45761389 63.68367324 51.49288681 63.68688165 44.52794558 63.67379415 C40.36835306 63.66599798 36.2090559 63.66496259 32.04948235 63.68147659 C28.13974894 63.69591493 24.23082612 63.68591251 20.32118034 63.65700531 C18.88608141 63.65039137 17.4509143 63.6522976 16.01584244 63.66331863 C14.05790383 63.67696953 12.09981622 63.65681939 10.14195251 63.63491821 C9.0459822 63.63303308 7.95001188 63.63114796 6.82083035 63.6292057 C4 63 4 63 1.6461916 60.63551617 C-0.30426477 57.51287886 -0.48598079 55.76629525 -0.45410156 52.1081543 C-0.45379944 50.94732834 -0.45349731 49.78650238 -0.45318604 48.59049988 C-0.42221832 46.72619072 -0.42221832 46.72619072 -0.390625 44.82421875 C-0.38496521 43.54392288 -0.37930542 42.26362701 -0.37347412 40.9445343 C-0.35825452 37.55272787 -0.31900634 34.16161452 -0.2746582 30.77008057 C-0.23362498 27.30449975 -0.21522638 23.8388028 -0.1953125 20.37304688 C-0.1546319 13.5814206 -0.07633499 6.79169361 0 0 Z " fill="#DB3D5D" transform="translate(237,347)"/>
<path d="M0 0 C2.43603516 0.09790039 2.43603516 0.09790039 5 1 C6.61474609 2.90405273 6.61474609 2.90405273 8.0234375 5.43359375 C8.83131714 6.85297241 8.83131714 6.85297241 9.65551758 8.30102539 C10.22294678 9.33606201 10.79037598 10.37109863 11.375 11.4375 C12.61585344 13.63283057 13.85674002 15.82814242 15.09765625 18.0234375 C15.73719238 19.1690918 16.37672852 20.31474609 17.03564453 21.49511719 C19.60787319 26.09825498 22.2464667 30.66280004 24.88525391 35.22802734 C26.16352931 37.43966726 27.43798711 39.65351834 28.70849609 41.86962891 C31.39945099 46.55615544 34.10513474 51.22065298 36.98046875 55.796875 C37.41319092 56.48966553 37.84591309 57.18245605 38.29174805 57.89624023 C39.40008623 59.65403906 40.5272647 61.39992172 41.65625 63.14453125 C43.17457875 66.37097985 43.18946415 67.68734233 42 71 C40.42663764 72.57336236 38.86484258 72.12921875 36.67921448 72.13371277 C35.28053131 72.14011024 35.28053131 72.14011024 33.85359192 72.14663696 C32.82239731 72.14618378 31.7912027 72.14573059 30.72875977 72.14526367 C29.64917999 72.14862228 28.56960022 72.1519809 27.45730591 72.15544128 C23.86866116 72.16498382 20.28006291 72.16689603 16.69140625 72.16796875 C14.20897909 72.17117896 11.72655212 72.17454285 9.24412537 72.17805481 C4.03278159 72.18405431 -1.17854559 72.18589386 -6.38989258 72.18530273 C-11.75320396 72.18476821 -17.11644343 72.1918168 -22.47973633 72.20581055 C-28.93883262 72.22242675 -35.39786414 72.22936017 -41.85698128 72.22869301 C-44.32544381 72.22987718 -46.79390692 72.23432322 -49.26235771 72.24202538 C-52.7081034 72.25177006 -56.15361618 72.24896915 -59.59936523 72.24291992 C-60.62853561 72.24853943 -61.65770599 72.25415894 -62.71806335 72.25994873 C-63.65333862 72.25575424 -64.58861389 72.25155975 -65.55223083 72.24723816 C-66.3676406 72.24778293 -67.18305037 72.24832769 -68.02316952 72.24888897 C-70 72 -70 72 -72 70 C-71.6841613 65.65542113 -70.47454205 62.57817727 -68.26171875 58.8671875 C-67.69404785 57.90490234 -67.12637695 56.94261719 -66.54150391 55.95117188 C-65.92968262 54.93603516 -65.31786133 53.92089844 -64.6875 52.875 C-64.06536621 51.82634766 -63.44323242 50.77769531 -62.80224609 49.69726562 C-60.87775793 46.45900527 -58.94003481 43.22896542 -57 40 C-55.80037146 37.99243232 -54.60113545 35.98463 -53.40234375 33.9765625 C-50.6129019 29.31083816 -47.81170046 24.65234168 -45 20 C-42.81640625 19.984375 -42.81640625 19.984375 -40 21 C-37.95080029 23.54340473 -36.47419117 26.37612625 -34.9375 29.25 C-32.24338509 34.1431398 -29.67861444 38.75217732 -26 43 C-25.6282666 42.36199463 -25.2565332 41.72398926 -24.87353516 41.06665039 C-21.19835035 34.75994265 -17.51966388 28.45528948 -13.83886719 22.15185547 C-12.19446732 19.33332091 -10.55370935 16.51270714 -8.9140625 13.69140625 C-8.02619112 12.16918365 -7.13818088 10.64704203 -6.25 9.125 C-5.84475098 8.42511963 -5.43950195 7.72523926 -5.02197266 7.00415039 C-3.50368736 4.40891133 -2.1358755 2.1358755 0 0 Z " fill="#FDF6F7" transform="translate(201,135)"/>
<path d="M0 0 C1.45074335 -0.00514042 2.90148046 -0.01242263 4.35220337 -0.02168274 C8.28623731 -0.04018984 12.21959311 -0.0272631 16.15359879 -0.00759244 C20.27257314 0.00880136 24.3915048 -0.00001985 28.51049805 -0.00511169 C35.4273562 -0.00963185 42.34394385 0.0062322 49.26074219 0.03417969 C57.25488606 0.06623139 65.24854209 0.0662157 73.2427206 0.04896492 C80.93625944 0.03309515 88.6296196 0.03983624 96.32315063 0.05690193 C99.59580243 0.06377037 102.86831092 0.06274216 106.14096069 0.05535698 C109.99562215 0.04768961 113.84972917 0.05983431 117.70429611 0.08720589 C119.11800872 0.09408617 120.53177315 0.09419143 121.94548416 0.08699036 C123.87682876 0.07828698 125.80823862 0.09670053 127.73950195 0.11643982 C128.81980179 0.11924674 129.90010162 0.12205366 131.01313782 0.12494564 C134.62965542 0.75342245 136.30605439 2.11133736 138.92578125 4.63110352 C140.15215695 7.08385492 140.03993439 8.68168162 140.0234375 11.42016602 C140.02093994 12.26788574 140.01844238 13.11560547 140.01586914 13.98901367 C140.00676514 15.06715332 139.99766113 16.14529297 139.98828125 17.25610352 C139.96765625 20.67985352 139.94703125 24.10360352 139.92578125 27.63110352 C131.01578125 27.63110352 122.10578125 27.63110352 112.92578125 27.63110352 C111.93578125 23.17610352 111.93578125 23.17610352 110.92578125 18.63110352 C106.82040344 14.5257257 104.1566711 14.45807225 98.55078125 14.38110352 C97.42929687 14.35532227 96.3078125 14.32954102 95.15234375 14.30297852 C91.35156209 14.68949868 89.70839077 14.97631705 86.92578125 17.63110352 C86.26578125 20.93110352 85.60578125 24.23110352 84.92578125 27.63110352 C68.75578125 27.63110352 52.58578125 27.63110352 35.92578125 27.63110352 C35.43078125 23.67110352 35.43078125 23.67110352 34.92578125 19.63110352 C33.03150079 17.24797648 31.62566946 15.98104762 28.92578125 14.63110352 C26.65932359 14.45587675 24.38605271 14.36382096 22.11328125 14.31860352 C20.88996094 14.2812207 19.66664063 14.24383789 18.40625 14.20532227 C14.17142959 14.72338672 12.70006458 15.38862874 9.92578125 18.63110352 C9.26578125 21.60110352 8.60578125 24.57110352 7.92578125 27.63110352 C-0.98421875 27.63110352 -9.89421875 27.63110352 -19.07421875 27.63110352 C-19.17734375 24.10422852 -19.28046875 20.57735352 -19.38671875 16.94360352 C-19.43223877 15.84056885 -19.47775879 14.73753418 -19.5246582 13.60107422 C-19.537146 12.7202417 -19.54963379 11.83940918 -19.5625 10.93188477 C-19.58868408 10.03638916 -19.61486816 9.14089355 -19.6418457 8.21826172 C-19.02183196 5.3923324 -18.14001546 3.69129627 -16.02945232 1.69534779 C-11.28060726 -0.88947441 -5.2730242 -0.04723453 0 0 Z " fill="#E64658" transform="translate(256.07421875,312.368896484375)"/>
<path d="M0 0 C2.28686523 0.18115234 2.28686523 0.18115234 5 1 C6.78930664 3.20556641 6.78930664 3.20556641 8.41015625 6.1015625 C9.30637695 7.67357422 9.30637695 7.67357422 10.22070312 9.27734375 C10.82849609 10.38207031 11.43628906 11.48679688 12.0625 12.625 C12.67416016 13.70652344 13.28582031 14.78804687 13.91601562 15.90234375 C15.09839267 17.99610981 16.27287784 20.09435703 17.43847656 22.19750977 C18.73712566 24.52821536 20.07010824 26.83126185 21.42578125 29.12890625 C23 32 23 32 23.125 34.3125 C21.39035932 36.91446103 18.90140614 37.11410399 16 38 C16.51691406 38.81984375 17.03382813 39.6396875 17.56640625 40.484375 C18.22511719 41.56203125 18.88382812 42.6396875 19.5625 43.75 C20.22378906 44.81734375 20.88507813 45.8846875 21.56640625 46.984375 C23 50 23 50 22.77734375 52.328125 C22 54 22 54 21 55 C19.31391034 55.07205511 17.62499341 55.08386068 15.9375 55.0625 C15.01839844 55.05347656 14.09929687 55.04445312 13.15234375 55.03515625 C12.44207031 55.02355469 11.73179687 55.01195312 11 55 C11.01047363 55.86802246 11.02094727 56.73604492 11.03173828 57.63037109 C11.06579716 60.84699528 11.09088767 64.06352767 11.10986328 67.28027344 C11.11992877 68.67320781 11.13358234 70.06612102 11.15087891 71.45898438 C11.1751022 73.4595436 11.18540814 75.46025615 11.1953125 77.4609375 C11.20578613 78.66540527 11.21625977 79.86987305 11.22705078 81.11083984 C11 84 11 84 9 86 C6.45464859 86.19849071 4.04283241 86.27851775 1.5 86.25 C0.81035156 86.25773437 0.12070312 86.26546875 -0.58984375 86.2734375 C-5.74666707 86.25333293 -5.74666707 86.25333293 -8 84 C-8.22705078 81.11083984 -8.22705078 81.11083984 -8.1953125 77.4609375 C-8.18564453 75.50800781 -8.18564453 75.50800781 -8.17578125 73.515625 C-8.15906929 72.13541405 -8.14213939 70.75520571 -8.125 69.375 C-8.11497006 67.98698548 -8.10584423 66.59896411 -8.09765625 65.2109375 C-8.07401863 61.80711974 -8.04106867 58.40364494 -8 55 C-8.62648438 55.02320313 -9.25296875 55.04640625 -9.8984375 55.0703125 C-10.71570313 55.08835938 -11.53296875 55.10640625 -12.375 55.125 C-13.18710937 55.14820313 -13.99921875 55.17140625 -14.8359375 55.1953125 C-17 55 -17 55 -19 53 C-18.67459897 48.93594878 -17.07616254 46.10025938 -14.9375 42.6875 C-14.38964844 41.80449219 -13.84179688 40.92148438 -13.27734375 40.01171875 C-12.85582031 39.34785156 -12.43429687 38.68398437 -12 38 C-13.98 37.34 -15.96 36.68 -18 36 C-18.97531088 32.8805589 -19.1677682 31.40850843 -17.90771484 28.34033203 C-17.34777832 27.40560059 -16.7878418 26.47086914 -16.2109375 25.5078125 C-15.29248047 23.95513672 -15.29248047 23.95513672 -14.35546875 22.37109375 C-13.70191406 21.29988281 -13.04835938 20.22867188 -12.375 19.125 C-11.74464844 18.06152344 -11.11429687 16.99804688 -10.46484375 15.90234375 C-7.19186137 10.42469133 -3.8076395 5.12061864 0 0 Z " fill="#FEF9F9" transform="translate(270,121)"/>
<path d="M0 0 C0.66 0 1.32 0 2 0 C2.5576001 1.00244751 2.5576001 1.00244751 3.12646484 2.02514648 C12.16014327 18.2509692 21.24088024 34.43489829 31.0390625 50.21484375 C32 52 32 52 32 54 C11.54 54 -8.92 54 -30 54 C-28.51935009 49.55805026 -27.2703948 46.42696637 -24.98046875 42.5 C-24.37614014 41.45763184 -23.77181152 40.41526367 -23.14916992 39.34130859 C-22.50181885 38.23867676 -21.85446777 37.13604492 -21.1875 36 C-20.52403564 34.86256348 -19.86057129 33.72512695 -19.17700195 32.55322266 C-17.80349139 30.19928362 -16.4263239 27.8475337 -15.046875 25.49707031 C-13.07834179 22.13971038 -11.13199686 18.76978012 -9.1875 15.3984375 C-8.02135023 13.39032474 -6.85470803 11.38249784 -5.6875 9.375 C-5.14311279 8.42753906 -4.59872559 7.48007813 -4.0378418 6.50390625 C-3.53422119 5.64410156 -3.03060059 4.78429687 -2.51171875 3.8984375 C-2.07303467 3.14224121 -1.63435059 2.38604492 -1.18237305 1.60693359 C-0.59709839 0.81150146 -0.59709839 0.81150146 0 0 Z " fill="#EA4A55" transform="translate(202,146)"/>
<path d="M0 0 C1.03705078 -0.02384766 2.07410156 -0.04769531 3.14257812 -0.07226562 C7.73263755 -0.06342158 10.73086739 0.07984697 14.74609375 2.41015625 C17.44373767 7.09187376 17.29179891 11.25020896 17.1875 16.5625 C17.20683594 17.54734375 17.22617188 18.5321875 17.24609375 19.546875 C17.21612 23.98299045 16.98526442 26.82879916 14.74609375 30.71484375 C9.91388442 33.51930389 5.48670697 33.25117039 0 33.125 C-1.04091797 33.13595703 -2.08183594 33.14691406 -3.15429688 33.15820312 C-10.72855366 33.08513955 -10.72855366 33.08513955 -13.73217773 30.87084961 C-15.81596389 28.05020564 -15.95237718 26.54289465 -15.96875 23.0625 C-15.97390625 22.010625 -15.9790625 20.95875 -15.984375 19.875 C-15.96890625 18.781875 -15.9534375 17.68875 -15.9375 16.5625 C-15.95296875 15.469375 -15.9684375 14.37625 -15.984375 13.25 C-15.97664062 11.6721875 -15.97664062 11.6721875 -15.96875 10.0625 C-15.96423828 9.1034375 -15.95972656 8.144375 -15.95507812 7.15625 C-14.28888768 -1.19356476 -6.80692681 -0.07165186 0 0 Z " fill="#FDFAFB" transform="translate(152.4375,324.4375)"/>
<path d="M0 0 C1.03705078 -0.02384766 2.07410156 -0.04769531 3.14257812 -0.07226562 C7.73263755 -0.06342158 10.73086739 0.07984697 14.74609375 2.41015625 C17.44373767 7.09187376 17.29179891 11.25020896 17.1875 16.5625 C17.20683594 17.54734375 17.22617188 18.5321875 17.24609375 19.546875 C17.21612 23.98299045 16.98526442 26.82879916 14.74609375 30.71484375 C9.91388442 33.51930389 5.48670697 33.25117039 0 33.125 C-1.04091797 33.13595703 -2.08183594 33.14691406 -3.15429688 33.15820312 C-10.72855366 33.08513955 -10.72855366 33.08513955 -13.73217773 30.87084961 C-15.81596389 28.05020564 -15.95237718 26.54289465 -15.96875 23.0625 C-15.97390625 22.010625 -15.9790625 20.95875 -15.984375 19.875 C-15.96890625 18.781875 -15.9534375 17.68875 -15.9375 16.5625 C-15.95296875 15.469375 -15.9684375 14.37625 -15.984375 13.25 C-15.97664062 11.6721875 -15.97664062 11.6721875 -15.96875 10.0625 C-15.96423828 9.1034375 -15.95972656 8.144375 -15.95507812 7.15625 C-14.28888768 -1.19356476 -6.80692681 -0.07165186 0 0 Z " fill="#FDF9FA" transform="translate(152.4375,276.4375)"/>
<path d="M0 0 C1.47726563 -0.03577148 1.47726563 -0.03577148 2.984375 -0.07226562 C7.44757743 -0.06321859 10.25533913 0.1260383 14.15234375 2.41015625 C16.8947453 7.08905276 16.69148481 11.23577616 16.5625 16.5625 C16.57345703 17.54734375 16.58441406 18.5321875 16.59570312 19.546875 C16.55413797 23.64796995 16.26829446 26.88589491 14.75 30.71484375 C10.05274594 33.87081132 4.94804733 33.23973846 -0.5625 33.125 C-2.28629883 33.14143555 -2.28629883 33.14143555 -4.04492188 33.15820312 C-12.43782273 33.0844518 -12.43782273 33.0844518 -14.82202148 30.87084961 C-17.10045479 26.40606476 -16.51158484 21.47447062 -16.5 16.5625 C-16.52835938 15.469375 -16.55671875 14.37625 -16.5859375 13.25 C-16.6050468 5.45340577 -16.6050468 5.45340577 -14.15625 1.84765625 C-9.43140446 -0.07619794 -5.05554126 -0.05624621 0 0 Z " fill="#FDF6F8" transform="translate(153,227.4375)"/>
<path d="M0 0 C0.83640015 0.00202423 1.67280029 0.00404846 2.5345459 0.00613403 C3.84908752 0.00350555 3.84908752 0.00350555 5.19018555 0.00082397 C8.10186717 -0.00359576 11.0134886 -0.00065613 13.9251709 0.00271606 C15.93916841 0.00204306 17.95316585 0.00107306 19.96716309 -0.00018311 C24.19405895 -0.00166024 28.42093373 0.00049499 32.64782715 0.00515747 C38.07897622 0.01085476 43.51007589 0.00757584 48.94122314 0.00158501 C53.10176977 -0.00202018 57.26230459 -0.00088222 61.42285156 0.0017128 C63.42602545 0.00238219 65.42920039 0.00155324 67.43237305 -0.00076675 C70.22687642 -0.00329258 73.02129861 0.00054632 75.8157959 0.00613403 C77.07039612 0.00309769 77.07039612 0.00309769 78.3503418 0 C84.06090848 0.02126614 84.06090848 0.02126614 85.1751709 1.13552856 C85.3001709 3.63552856 85.3001709 3.63552856 85.1751709 6.13552856 C83.34638624 7.96431322 80.79617425 7.2684256 78.3614502 7.28216553 C77.52662109 7.28171234 76.69179199 7.28125916 75.83166504 7.28079224 C74.95691025 7.28415085 74.08215546 7.28750946 73.18089294 7.29096985 C70.27402344 7.30050985 67.36721135 7.30242447 64.46032715 7.30349731 C62.44872513 7.30670775 60.43712336 7.31007165 58.42552185 7.31358337 C54.20282449 7.31958226 49.98014762 7.32142249 45.75744629 7.3208313 C40.33532693 7.32072963 34.91333837 7.33438377 29.49125004 7.35160351 C25.33494966 7.36269902 21.17868115 7.36475126 17.02236748 7.36422157 C15.02280667 7.36540532 13.02324512 7.36984903 11.02369881 7.37755394 C8.23172866 7.3873047 5.44004564 7.38449537 2.64807129 7.37844849 C1.81526642 7.38406799 0.98246155 7.3896875 0.12442017 7.39547729 C-5.59651376 7.36384391 -5.59651376 7.36384391 -7.8248291 5.13552856 C-6.99686053 -0.32906398 -5.24627601 0.01953712 0 0 Z " fill="#FDF8F9" transform="translate(187.8248291015625,288.8644714355469)"/>
<path d="M0 0 C30.03 0 60.06 0 91 0 C91.495 2.475 91.495 2.475 92 5 C89.41243033 7.58756967 87.65132271 7.24449787 84.12532043 7.27105713 C83.30343735 7.26700867 82.48155426 7.26296021 81.63476562 7.25878906 C80.76961838 7.2622937 79.90447113 7.26579834 79.0131073 7.26940918 C76.14407402 7.27823507 73.27528593 7.27237433 70.40625 7.265625 C68.41849724 7.2669714 66.4307448 7.26891173 64.44299316 7.27142334 C60.27332428 7.27437577 56.10374098 7.27007315 51.93408203 7.26074219 C46.58035724 7.2493476 41.22683296 7.25590644 35.87311554 7.26788712 C31.76742025 7.27510251 27.66177276 7.27281926 23.55607605 7.26763153 C21.58163937 7.26629415 19.60719839 7.26794584 17.63276672 7.27259064 C14.87680509 7.27765061 12.12117148 7.26995313 9.36523438 7.25878906 C8.54335129 7.26283752 7.7214682 7.26688599 6.87467957 7.27105713 C1.22852806 7.22852806 1.22852806 7.22852806 -1 5 C-0.67 3.35 -0.34 1.7 0 0 Z " fill="#FDF5F6" transform="translate(181,244)"/>
<path d="M0 0 C3.19146552 3.80382346 5.81572676 7.72764213 8.3125 12 C8.8703418 12.90492188 8.8703418 12.90492188 9.43945312 13.828125 C12.07278315 18.33960289 12.07278315 18.33960289 11.73754883 21.38134766 C10.36652178 26.24915173 8.59881479 30.37072979 5 34 C0.81767404 35.22921942 -3.0613428 34.95525644 -7.375 34.625 C-8.49261719 34.57988281 -9.61023438 34.53476563 -10.76171875 34.48828125 C-13.5133319 34.37069094 -16.25388464 34.20673789 -19 34 C-17.50354731 28.71253384 -15.07088214 24.40927421 -12.25 19.75 C-11.80406494 19.00363281 -11.35812988 18.25726563 -10.89868164 17.48828125 C-10.01126412 16.00437642 -9.12143213 14.52191241 -8.22900391 13.04101562 C-7.16008737 11.26585825 -6.10068166 9.48498068 -5.04296875 7.703125 C-1.15213523 1.15213523 -1.15213523 1.15213523 0 0 Z " fill="#E6455E" transform="translate(158,166)"/>
<path d="M0 0 C1.42674294 -0.00945648 1.42674294 -0.00945648 2.88230896 -0.019104 C4.42762047 -0.01303131 4.42762047 -0.01303131 6.00415039 -0.00683594 C7.05961563 -0.00874939 8.11508087 -0.01066284 9.20252991 -0.01263428 C11.43775673 -0.01399708 13.67299145 -0.01029407 15.90820312 -0.00195312 C19.33424648 0.00873428 22.75976417 -0.00183994 26.18579102 -0.01464844 C28.35441197 -0.01332665 30.52303259 -0.01076386 32.69165039 -0.00683594 C34.23392555 -0.01290863 34.23392555 -0.01290863 35.80735779 -0.019104 C36.76167191 -0.01279968 37.71598602 -0.00649536 38.69921875 0 C39.53923935 0.00159119 40.37925995 0.00318237 41.24473572 0.00482178 C43.41430664 0.25878906 43.41430664 0.25878906 46.41430664 2.25878906 C46.75488281 4.68896484 46.75488281 4.68896484 46.70727539 7.70410156 C46.69277344 9.31865234 46.69277344 9.31865234 46.67797852 10.96582031 C46.6528418 12.09375 46.62770508 13.22167969 46.60180664 14.38378906 C46.58150391 16.08728516 46.58150391 16.08728516 46.56079102 17.82519531 C46.52534983 20.63686294 46.47594181 23.44759323 46.41430664 26.25878906 C44.76430664 26.25878906 43.11430664 26.25878906 41.41430664 26.25878906 C41.35823242 24.57849609 41.35823242 24.57849609 41.30102539 22.86425781 C41.23536407 21.39156816 41.16891678 19.9189134 41.10180664 18.44628906 C41.06796875 17.33930664 41.06796875 17.33930664 41.03344727 16.20996094 C40.87350967 12.19715282 40.87350967 12.19715282 39.37255859 8.54663086 C36.31193606 6.53381652 33.11411356 6.83129891 29.57055664 6.86035156 C28.80505493 6.85748138 28.03955322 6.85461121 27.25085449 6.85165405 C25.63361877 6.84961407 24.01635834 6.85513944 22.39916992 6.86767578 C19.92318573 6.88373149 17.4488338 6.86782609 14.97290039 6.84863281 C13.4012822 6.85061526 11.82966503 6.85445896 10.25805664 6.86035156 C9.51736938 6.85427887 8.77668213 6.84820618 8.0135498 6.84194946 C4.01399656 6.89598517 4.01399656 6.89598517 0.45605469 8.54663086 C-1.37658256 11.55864984 -1.16821267 15.01192092 -1.27319336 18.44628906 C-1.30735352 19.19587891 -1.34151367 19.94546875 -1.37670898 20.71777344 C-1.4590363 22.56425744 -1.52404617 24.411499 -1.58569336 26.25878906 C-3.23569336 26.25878906 -4.88569336 26.25878906 -6.58569336 26.25878906 C-6.64354983 22.30051671 -6.67924053 18.34235237 -6.71069336 14.38378906 C-6.72745117 13.25585938 -6.74420898 12.12792969 -6.76147461 10.96582031 C-6.76791992 9.88945312 -6.77436523 8.81308594 -6.78100586 7.70410156 C-6.79147949 6.70910645 -6.80195313 5.71411133 -6.81274414 4.68896484 C-6.38563007 0.11746649 -3.99524338 0.00757506 0 0 Z " fill="#EB5059" transform="translate(296.585693359375,279.7412109375)"/>
<path d="M0 0 C9.57 0 19.14 0 29 0 C29 4.29 29 8.58 29 13 C19.43 13 9.86 13 0 13 C0 8.71 0 4.42 0 0 Z " fill="#EA4754" transform="translate(302,293)"/>
<path d="M0 0 C1.35581932 -0.0049926 1.35581932 -0.0049926 2.73902893 -0.01008606 C4.65487152 -0.01515921 6.57072297 -0.01749427 8.48657227 -0.01733398 C11.42544043 -0.01951938 14.36393277 -0.0376679 17.30273438 -0.05664062 C19.16015496 -0.05957462 21.01757734 -0.06155938 22.875 -0.0625 C23.75836533 -0.06968552 24.64173065 -0.07687103 25.55186462 -0.08427429 C31.77508486 -0.06085264 31.77508486 -0.06085264 34.00390625 2.16796875 C33.44835069 6.72352431 33.44835069 6.72352431 32.00390625 8.16796875 C28.99752375 8.28153599 26.01498183 8.33215787 23.0078125 8.3359375 C21.65199318 8.3409301 21.65199318 8.3409301 20.26878357 8.34602356 C18.35294098 8.35109671 16.43708953 8.35343177 14.52124023 8.35327148 C11.58237207 8.35545688 8.64387973 8.3736054 5.70507812 8.39257812 C3.84765754 8.39551212 1.99023516 8.39749688 0.1328125 8.3984375 C-0.75055283 8.40562302 -1.63391815 8.41280853 -2.54405212 8.42021179 C-8.76727236 8.39679014 -8.76727236 8.39679014 -10.99609375 6.16796875 C-10.08546899 -1.29915429 -6.6308 0.00833408 0 0 Z " fill="#F8E6EC" transform="translate(190.99609375,336.83203125)"/>
<path d="M0 0 C5.94 0 11.88 0 18 0 C18 5.94 18 11.88 18 18 C12.06 18 6.12 18 0 18 C0 12.06 0 6.12 0 0 Z " fill="#BC3773" transform="translate(144,332)"/>
<path d="M0 0 C5.94 0 11.88 0 18 0 C18 5.94 18 11.88 18 18 C12.06 18 6.12 18 0 18 C0 12.06 0 6.12 0 0 Z " fill="#C93C6D" transform="translate(144,284)"/>
<path d="M0 0 C5.94 0 11.88 0 18 0 C18 5.94 18 11.88 18 18 C12.06 18 6.12 18 0 18 C0 12.06 0 6.12 0 0 Z " fill="#D74267" transform="translate(144,235)"/>
<path d="M0 0 C0.98871094 -0.01417969 1.97742188 -0.02835937 2.99609375 -0.04296875 C5.5625 0.1875 5.5625 0.1875 7.5625 2.1875 C7.76106972 5.06092061 7.84078946 7.81611988 7.8125 10.6875 C7.82023437 11.47253906 7.82796875 12.25757813 7.8359375 13.06640625 C7.81580787 18.93419213 7.81580787 18.93419213 5.5625 21.1875 C3.25 21.453125 3.25 21.453125 0.5625 21.4375 C-0.7678125 21.44523437 -0.7678125 21.44523437 -2.125 21.453125 C-4.4375 21.1875 -4.4375 21.1875 -6.4375 19.1875 C-6.68041992 17.32397461 -6.68041992 17.32397461 -6.66796875 15.08984375 C-6.66603516 14.28869141 -6.66410156 13.48753906 -6.66210938 12.66210938 C-6.64986328 11.82486328 -6.63761719 10.98761719 -6.625 10.125 C-6.62435547 9.28388672 -6.62371094 8.44277344 -6.62304688 7.57617188 C-6.56841256 0.04270749 -6.56841256 0.04270749 0 0 Z " fill="#EA4A58" transform="translate(354.4375,332.8125)"/>
<path d="M0 0 C1.48306641 0.02126953 1.48306641 0.02126953 2.99609375 0.04296875 C3.98738281 0.04941406 4.97867187 0.05585938 6 0.0625 C8.43359375 0.23046875 8.43359375 0.23046875 9.43359375 1.23046875 C9.56027139 4.22065036 9.61880213 7.17740983 9.62109375 10.16796875 C9.63333984 11.00521484 9.64558594 11.84246094 9.65820312 12.70507812 C9.66110352 13.90680664 9.66110352 13.90680664 9.6640625 15.1328125 C9.66817139 15.87007568 9.67228027 16.60733887 9.67651367 17.36694336 C9.43359375 19.23046875 9.43359375 19.23046875 7.43359375 21.23046875 C5.12109375 21.49609375 5.12109375 21.49609375 2.43359375 21.48046875 C1.10328125 21.48820312 1.10328125 21.48820312 -0.25390625 21.49609375 C-2.56640625 21.23046875 -2.56640625 21.23046875 -4.56640625 19.23046875 C-4.76497597 16.35704814 -4.84469571 13.60184887 -4.81640625 10.73046875 C-4.82414062 9.94542969 -4.831875 9.16039062 -4.83984375 8.3515625 C-4.81267609 0.43218857 -4.81267609 0.43218857 0 0 Z " fill="#DD4161" transform="translate(275.56640625,332.76953125)"/>
<path d="M0 0 C3.44248059 3.14785388 5.85921194 6.65806277 8.25 10.625 C8.61351562 11.21023437 8.97703125 11.79546875 9.3515625 12.3984375 C12 16.73948543 12 16.73948543 12 19 C4.74 19 -2.52 19 -10 19 C-8.74835013 15.87087533 -7.69858563 13.28626875 -6.0546875 10.44921875 C-5.70019531 9.83369141 -5.34570312 9.21816406 -4.98046875 8.58398438 C-4.61566406 7.95814453 -4.25085938 7.33230469 -3.875 6.6875 C-3.50246094 6.04232422 -3.12992187 5.39714844 -2.74609375 4.73242188 C-1.83367787 3.15324055 -0.91724491 1.57638136 0 0 Z " fill="#ED5C4C" transform="translate(271,132)"/>
<path d="M0 0 C2.57161458 0.03255208 5.14322917 0.06510417 7.71484375 0.09765625 C9.69484375 3.72765625 11.67484375 7.35765625 13.71484375 11.09765625 C6.45484375 11.09765625 -0.80515625 11.09765625 -8.28515625 11.09765625 C-2.8670528 0.12252362 -2.8670528 0.12252362 0 0 Z " fill="#EC5348" transform="translate(269.28515625,157.90234375)"/>
<path d="M0 0 C1.98 0 3.96 0 6 0 C6 7.92 6 15.84 6 24 C4.02 24 2.04 24 0 24 C0 16.08 0 8.16 0 0 Z " fill="#EE6D68" transform="translate(269,176)"/>
</svg>
