<?xml version="1.0" standalone="no"?>
<!DOCTYPE svg PUBLIC "-//W3C//DTD SVG 20010904//EN"
 "http://www.w3.org/TR/2001/REC-SVG-20010904/DTD/svg10.dtd">
<svg version="1.0" xmlns="http://www.w3.org/2000/svg"
 width="736.000000pt" height="1104.000000pt" viewBox="0 0 736.000000 1104.000000"
 preserveAspectRatio="xMidYMid meet">
<metadata>
Created by potrace 1.16, written by Peter Selinger 2001-2019
</metadata>
<g transform="translate(0.000000,1104.000000) scale(0.100000,-0.100000)"
fill="#000000" stroke="none">
<path d="M0 5520 l0 -5520 3680 0 3680 0 0 5520 0 5520 -3680 0 -3680 0 0
-5520z m4469 3139 c22 -6 38 -16 35 -21 -3 -5 5 -6 18 -3 17 4 52 -8 118 -41
82 -41 107 -61 209 -163 69 -69 128 -138 146 -171 29 -53 35 -90 14 -90 -6 0
-8 9 -4 20 5 15 3 18 -9 14 -12 -5 -15 -2 -10 10 3 9 1 16 -5 16 -6 0 -11 -6
-11 -12 0 -7 -6 -4 -12 7 -6 11 -26 35 -45 53 -18 18 -33 42 -33 52 0 14 -5
18 -17 13 -15 -6 -16 -4 -5 9 11 14 6 22 -32 60 -61 59 -73 68 -90 68 -8 0
-22 9 -30 21 -8 12 -19 18 -26 14 -6 -4 -19 0 -28 8 -28 25 -92 48 -93 34 0
-9 -2 -9 -5 0 -3 7 -11 10 -18 7 -7 -3 -26 6 -42 19 -16 13 -38 29 -49 35 -17
10 -18 11 -2 12 9 0 17 4 17 9 0 5 -9 7 -19 4 -13 -3 -23 2 -31 18 -10 19 -10
21 3 16 8 -3 33 -11 56 -18z m-2198 -1776 c-14 -48 -14 -312 0 -268 5 17 10
52 11 78 4 73 24 81 30 11 6 -67 31 -94 36 -39 3 32 6 35 34 35 25 0 42 11 85
56 57 61 65 90 33 119 -11 10 -20 23 -19 29 0 6 3 6 6 -2 7 -18 39 -33 58 -26
14 6 13 10 -7 32 l-23 25 25 -16 c13 -9 33 -17 43 -17 10 0 16 -3 13 -8 -6
-11 29 -84 37 -75 4 3 7 1 7 -6 0 -7 14 -17 30 -22 17 -6 30 -15 30 -20 0 -5
5 -9 12 -9 6 0 22 -10 35 -22 20 -19 37 -22 136 -25 145 -6 205 -22 246 -69
45 -51 37 -60 -45 -56 -59 3 -73 1 -97 -18 -32 -25 -27 -42 11 -35 25 5 25 5
5 -4 -24 -11 -27 -23 -13 -56 8 -18 9 -17 9 6 1 18 8 28 20 32 15 3 18 1 14
-11 -5 -11 -2 -14 9 -10 8 4 21 2 29 -2 8 -6 16 -4 21 3 6 9 8 9 8 0 0 -7 6
-13 14 -13 28 0 28 -23 0 -46 -84 -68 91 25 319 170 89 57 230 145 312 196 83
51 161 101 174 111 13 11 31 19 40 19 9 0 -143 -106 -338 -235 -195 -129 -359
-239 -364 -244 -6 -6 10 -15 46 -26 30 -9 60 -22 66 -29 7 -8 13 -98 15 -242
2 -126 5 -238 6 -248 2 -28 23 -66 101 -180 51 -75 85 -113 132 -147 102 -75
111 -77 201 -35 42 20 76 39 76 44 0 5 8 17 18 28 9 10 45 53 78 94 34 41 81
91 104 110 24 19 48 40 54 45 32 29 122 76 140 73 15 -2 25 -15 33 -43 7 -22
21 -68 32 -101 17 -55 84 -162 103 -163 3 -1 20 -14 36 -31 17 -16 37 -30 46
-30 17 0 46 -27 46 -43 0 -7 -4 -6 -10 3 -11 17 -12 4 -2 -23 6 -14 15 -4 46
48 54 92 63 91 11 -3 -64 -113 -87 -149 -81 -127 7 25 6 23 -92 -107 -71 -96
-104 -128 -129 -128 -7 0 -13 10 -13 23 -1 83 -79 235 -165 315 l-67 64 -71
-70 c-81 -78 -226 -188 -274 -208 -41 -18 -105 -18 -146 -1 -18 8 -59 42 -91
75 -33 34 -68 62 -78 62 -19 0 -58 33 -58 50 0 6 11 16 25 22 14 6 25 17 25
25 0 16 5 17 -70 -8 -58 -19 -65 -19 -76 -5 -6 9 -20 16 -31 16 -29 0 -50 28
-89 116 -29 68 -37 79 -56 76 -50 -6 -108 43 -108 90 0 7 -17 22 -37 33 -35
19 -65 66 -51 81 8 8 70 -25 64 -34 -2 -4 7 -12 20 -19 13 -6 22 -7 18 -2 -3
5 2 9 10 9 14 0 21 18 17 43 -1 4 8 3 20 -3 21 -12 21 -12 1 -33 -29 -33 -15
-56 48 -78 72 -24 70 -24 70 15 0 22 -9 45 -24 63 l-24 28 33 37 c23 25 36 51
40 82 4 25 11 46 15 46 10 0 20 -26 20 -52 0 -27 22 -18 38 15 10 21 10 36 2
68 -6 22 -9 44 -6 47 3 3 6 -3 6 -14 0 -16 2 -17 10 -4 8 12 10 10 10 -9 l0
-24 25 23 c67 63 54 143 -41 242 l-64 66 -42 -34 c-27 -23 -46 -33 -57 -28
-41 18 -154 -13 -226 -62 -20 -13 -34 -20 -31 -16 6 10 -64 85 -72 78 -2 -3
10 -28 27 -57 18 -28 30 -53 28 -55 -2 -3 -34 25 -71 62 -65 65 -93 79 -63 32
9 -12 20 -42 26 -64 6 -23 22 -58 36 -78 14 -20 25 -41 25 -46 0 -5 11 -35 25
-66 51 -115 15 -104 -50 16 l-35 65 0 -55 c-1 -52 -2 -54 -16 -35 -9 11 -25
40 -36 65 -15 34 -21 41 -28 30 -6 -8 -10 -23 -10 -32 0 -36 -20 -27 -31 14
-6 24 -13 50 -16 58 -3 10 -13 -1 -29 -30 -14 -25 -22 -36 -19 -25 18 53 17
94 -1 119 -22 30 -31 32 -37 9 -3 -11 -5 -7 -6 10 -1 33 -84 157 -89 133 -2
-8 5 -27 14 -43 l18 -28 -27 24 c-18 16 -25 31 -22 45 2 12 -2 35 -10 51 -14
28 -15 28 -11 5 2 -14 7 -34 11 -44 6 -13 5 -17 -3 -13 -6 4 -12 0 -14 -10 -2
-10 -12 4 -27 35 -14 29 -28 52 -32 52 -10 0 -21 -83 -14 -106 3 -10 -6 6 -20
36 -14 30 -31 77 -37 104 -10 49 -6 212 8 270 l7 29 -32 -22 c-45 -32 -50 -19
-7 16 32 25 51 54 26 38 -5 -3 -10 -4 -10 0 0 6 43 24 48 20 2 -2 -1 -20 -7
-42z m3759 -118 c24 -9 47 -21 51 -27 9 -15 -19 -58 -38 -58 -8 0 -11 -5 -7
-12 5 -8 2 -9 -10 -5 -13 5 -17 3 -13 -7 4 -11 1 -13 -10 -9 -11 4 -14 2 -9
-5 4 -7 3 -12 -1 -12 -5 0 -21 -11 -36 -26 -15 -14 -32 -22 -37 -19 -6 4 -13
0 -16 -8 -6 -16 -47 -33 -176 -71 -47 -15 -88 -29 -90 -34 -2 -4 -23 -17 -48
-29 -25 -12 -67 -36 -95 -52 -27 -17 -71 -42 -97 -55 -25 -14 -75 -47 -110
-74 -34 -26 -85 -65 -113 -86 -27 -20 -83 -70 -124 -109 -40 -40 -69 -63 -63
-52 13 26 149 155 233 221 156 124 373 246 515 290 49 15 112 40 139 56 28 16
61 34 75 40 29 13 90 84 90 105 0 8 -9 17 -20 20 -11 3 -20 10 -20 15 0 10
-74 8 -317 -10 -82 -6 -107 -11 -132 -29 -17 -13 -39 -23 -49 -23 -10 0 -29
-11 -42 -25 -13 -14 -29 -25 -36 -25 -27 0 -64 -24 -64 -42 0 -10 -7 -18 -17
-18 -18 0 -159 -55 -200 -78 -19 -11 -23 -10 -23 3 0 8 15 22 33 29 69 30 140
56 153 56 7 0 40 27 74 60 41 40 69 60 85 60 14 0 55 12 92 26 115 43 375 54
473 19z m-2922 -441 c69 -48 97 -205 53 -297 -37 -76 -76 -84 -126 -26 -28 34
-35 75 -10 66 8 -4 17 -2 20 3 12 20 21 9 17 -20 -2 -16 -9 -30 -14 -30 -6 0
-5 -6 2 -15 25 -30 37 -16 44 48 7 72 0 121 -20 138 -8 6 -14 19 -14 28 0 9
-9 31 -21 50 -23 39 -20 58 13 64 13 2 25 5 28 6 3 0 16 -6 28 -15z m1881
-124 c18 -36 36 -72 41 -81 7 -14 -1 -17 -61 -23 -39 -4 -88 -13 -109 -21
l-38 -14 42 92 c24 51 49 105 55 121 11 28 13 28 25 10 7 -10 28 -48 45 -84z
m424 -566 c101 -42 137 -61 129 -69 -4 -5 1 -6 10 -2 9 3 19 0 21 -8 3 -7 26
-23 51 -36 25 -12 43 -26 40 -30 -2 -4 0 -10 6 -14 5 -3 10 1 10 9 0 20 10 20
38 0 28 -19 28 -32 0 -36 -16 -2 -22 -9 -20 -20 4 -26 -12 -22 -49 13 -70 65
-237 167 -282 172 -24 2 -37 14 -37 35 0 17 13 15 83 -14z m13 -124 c8 0 14
-5 14 -11 0 -5 5 -7 10 -4 6 3 10 1 10 -4 0 -6 6 -11 14 -11 30 0 146 -78 146
-99 0 -6 11 -13 25 -17 14 -3 25 -10 25 -14 0 -5 3 -15 6 -24 4 -10 -27 1 -88
32 -51 26 -97 48 -103 48 -22 2 -55 17 -55 24 0 4 -9 10 -20 13 -27 7 -26 37
1 37 11 0 17 4 14 10 -4 6 -15 8 -24 5 -22 -7 -51 3 -51 17 0 6 11 8 25 6 13
-3 24 -2 23 1 -2 17 5 24 9 9 2 -10 11 -18 19 -18z m-1240 -700 c18 -24 24
-66 28 -218 3 -79 7 -146 10 -150 3 -3 6 3 6 14 1 43 11 47 106 35 121 -16
157 -30 149 -56 -3 -11 -8 -51 -12 -88 -5 -57 -9 -67 -22 -62 -59 24 -97 9
-107 -41 -4 -22 -10 -31 -14 -24 -6 9 -13 9 -29 1 -25 -14 -26 -15 -4 -37 13
-13 14 -19 5 -22 -23 -7 -12 -19 15 -14 22 4 25 2 20 -12 -4 -10 -7 -22 -7
-27 0 -6 -4 -8 -10 -4 -13 8 -39 -47 -46 -99 -7 -45 20 -157 52 -218 17 -34 1
-47 -20 -16 -9 12 -16 17 -16 10 0 -9 -5 -10 -18 -3 -31 16 -64 143 -97 366
-12 77 -17 197 -19 397 -3 288 -1 310 30 268z m-2631 -459 c-2 -5 -38 -14 -80
-20 -71 -12 -75 -14 -69 -34 3 -12 3 -19 -1 -15 -5 4 -14 3 -22 -4 -7 -6 -16
-8 -20 -4 -4 3 2 13 13 21 17 12 17 14 2 15 -9 0 -23 -7 -32 -15 -8 -8 -17
-11 -20 -6 -3 4 -29 2 -58 -5 -29 -8 -63 -14 -75 -14 -18 0 -23 -6 -23 -25 0
-19 -4 -23 -17 -18 -11 4 -12 8 -5 11 7 2 12 8 12 13 0 12 -37 11 -45 -1 -4
-6 -12 -10 -18 -9 -35 4 -44 -2 -39 -26 2 -14 9 -25 14 -25 6 0 5 -7 -2 -15
-10 -12 -10 -15 0 -15 9 0 9 -4 -1 -17 -12 -14 -12 -16 0 -9 11 7 13 1 9 -28
-3 -27 0 -36 11 -36 11 0 12 -3 4 -11 -6 -6 -7 -25 -2 -52 12 -63 11 -89 -3
-81 -8 4 -10 3 -5 -2 5 -5 13 -9 19 -9 6 0 12 -7 14 -15 1 -8 5 -23 9 -32 4
-11 3 -18 -4 -18 -6 0 -11 7 -11 16 0 8 -5 12 -10 9 -6 -4 -8 -11 -5 -16 4 -5
0 -16 -9 -24 -10 -11 -17 -12 -22 -4 -3 6 0 15 7 20 9 6 10 9 2 9 -19 0 -32
52 -36 146 -2 49 -5 60 -17 57 -8 -3 -3 4 13 14 15 11 25 22 21 25 -3 3 -6 20
-6 37 -1 18 -4 34 -8 36 -4 3 -5 15 -3 29 6 30 -16 46 -24 17 -4 -15 -9 -19
-17 -12 -7 6 -29 8 -49 4 -27 -4 -37 -11 -37 -24 0 -11 5 -19 11 -19 8 0 8 -5
-1 -15 -10 -12 -10 -15 4 -15 9 0 16 -5 16 -11 0 -5 -4 -7 -10 -4 -5 3 -10 -3
-10 -15 0 -14 4 -19 13 -14 6 4 9 4 5 -1 -4 -4 -3 -14 3 -22 6 -7 7 -13 2 -13
-5 0 -9 -10 -7 -22 1 -13 3 -26 3 -30 1 -11 31 -10 31 0 0 5 7 9 15 9 22 0 14
-30 -9 -33 -26 -4 -45 -24 -23 -24 9 0 17 -5 17 -11 0 -5 -4 -7 -10 -4 -5 3
-10 -1 -10 -9 0 -9 -5 -16 -10 -16 -6 0 -9 3 -9 8 7 41 -6 46 -63 23 -16 -6
-28 -6 -28 -2 0 5 13 12 29 16 44 9 53 27 46 79 -4 25 -11 46 -16 46 -5 0 -9
-4 -9 -10 0 -5 -4 -10 -10 -10 -18 0 -11 22 8 27 16 4 18 12 14 51 -2 26 -5
48 -6 49 -1 1 -34 -6 -74 -16 -40 -10 -72 -14 -72 -10 0 9 4 10 145 44 61 14
117 29 125 32 8 3 22 7 30 8 48 6 119 28 114 36 -3 5 0 9 5 9 6 0 11 -5 11
-10 0 -6 10 -9 23 -6 35 6 289 67 317 76 27 8 43 4 35 -9z m2966 -17 c10 -13
10 -17 0 -24 -9 -5 -10 -10 -2 -14 6 -4 11 -12 11 -17 0 -6 -4 -7 -10 -4 -6 4
-10 -5 -10 -19 0 -14 5 -26 10 -26 6 0 10 -8 10 -17 0 -16 -2 -16 -11 -3 -8
11 -9 -7 -4 -65 6 -74 23 -136 71 -257 12 -33 15 -51 8 -58 -6 -6 -46 -11 -90
-13 l-79 -2 -19 39 -19 40 23 15 c48 32 100 92 100 115 0 36 -10 37 -54 7 -22
-15 -56 -36 -73 -45 -31 -16 -32 -18 -28 -64 6 -53 2 -49 -19 20 l-14 47 65
30 c55 26 66 36 82 73 10 24 22 63 25 88 6 45 6 46 -28 58 -19 7 -40 20 -48
29 -11 15 -11 16 7 9 11 -5 27 -9 35 -10 8 0 18 -5 22 -11 4 -5 8 14 8 43 0
54 8 63 31 36z m-1426 -174 c39 -5 97 -10 131 -10 99 0 149 -21 242 -100 46
-38 93 -75 105 -82 39 -20 156 -98 161 -107 6 -9 -126 -101 -144 -101 -5 0
-10 -4 -10 -10 0 -5 -5 -10 -10 -10 -6 0 1 17 15 37 14 21 25 43 25 49 0 11
-91 110 -100 108 -3 -1 -24 12 -48 28 -52 36 -192 82 -206 68 -15 -15 -26 -12
-20 5 4 9 -4 19 -23 27 -15 7 -31 16 -34 21 -3 4 -32 10 -65 13 -32 3 -98 12
-145 21 -86 15 -87 15 -170 -10 -88 -27 -219 -43 -219 -27 0 9 61 29 210 69
41 11 88 24 105 29 16 4 52 5 80 0 27 -5 82 -13 120 -18z m-1863 -42 c-7 -7
-12 -21 -11 -32 0 -21 0 -21 9 -1 5 11 9 18 10 15 7 -24 11 -52 12 -90 1 -36
5 -46 19 -46 14 0 15 3 7 13 -6 8 -8 16 -4 20 3 3 6 1 6 -6 0 -8 8 -10 23 -6
18 5 19 4 7 -5 -23 -17 49 -1 77 17 12 8 26 14 30 14 4 0 31 7 58 15 28 9 66
18 85 21 29 4 33 3 22 -9 -7 -7 -16 -13 -20 -13 -4 -1 -29 -11 -56 -23 -27
-12 -55 -22 -63 -22 -8 0 -23 -5 -34 -10 -13 -7 -19 -7 -19 0 0 5 -9 1 -21
-11 -13 -13 -29 -19 -44 -16 -33 6 -55 -9 -35 -23 11 -8 7 -9 -14 -4 -19 5
-27 3 -23 -3 4 -6 1 -13 -7 -16 -11 -5 -15 9 -18 61 -2 38 1 70 7 74 6 5 2 8
-7 8 -15 0 -18 9 -18 45 0 36 4 45 17 45 13 0 14 -3 5 -12z m1981 -125 c-5
-12 -7 -12 -14 -1 -7 10 -9 9 -9 -5 0 -20 1 -20 83 -37 31 -6 57 -14 57 -18 0
-4 -37 -6 -82 -6 -88 2 -134 -13 -172 -55 -10 -11 -23 -18 -27 -15 -5 3 -9 1
-9 -4 0 -5 -23 -19 -50 -31 -42 -18 -61 -20 -118 -15 -37 4 -89 15 -115 25
-26 11 -66 19 -88 19 -24 0 -38 4 -34 10 10 16 95 11 173 -10 141 -39 196 -23
312 92 68 68 108 90 93 51z m1325 -235 c3 -15 -4 -18 -35 -18 -34 -1 -36 -2
-20 -14 10 -8 37 -17 61 -20 31 -5 46 -13 54 -29 l11 -22 0 23 c1 12 3 22 5
22 2 0 11 3 19 6 11 4 17 -4 22 -28 4 -18 14 -43 22 -55 15 -22 14 -23 -18
-23 -36 0 -112 31 -123 49 -4 6 -18 11 -31 11 -18 0 -35 15 -65 55 -22 30 -40
57 -40 60 0 3 30 5 67 3 55 -2 68 -6 71 -20z m-3557 -279 c6 -12 29 -69 50
-127 40 -109 59 -153 70 -162 9 -8 28 -93 23 -102 -12 -19 -33 -5 -49 35 -21
53 -135 367 -135 373 0 13 31 1 41 -17z m1453 -152 c8 -33 95 -120 112 -113 7
3 11 -3 10 -12 -2 -9 -8 -17 -15 -18 -8 -2 -8 -1 0 3 6 3 -8 16 -32 30 l-43
24 -260 -6 c-292 -6 -382 -13 -351 -26 16 -6 16 -8 3 -8 -9 -1 -38 -11 -65
-22 -79 -35 -147 -59 -166 -59 -24 0 -119 -40 -132 -55 -21 -25 -155 -40 -282
-30 -108 8 -108 12 4 54 29 11 98 42 155 69 57 27 120 57 141 66 20 9 37 19
37 20 0 2 -16 4 -36 4 -24 0 -32 -3 -24 -8 9 -6 1 -11 -26 -15 -21 -3 -47 -8
-56 -10 -10 -2 -18 1 -18 6 0 5 -8 9 -17 9 -15 0 -16 2 -3 10 11 7 1 10 -35
11 l-50 1 50 9 c28 5 122 9 210 9 165 -1 194 1 305 19 80 13 243 14 290 1 32
-8 178 -15 242 -12 l27 2 -14 48 c-23 73 -20 89 8 55 13 -15 27 -41 31 -56z
m779 -244 c-19 -3 -33 -10 -33 -18 0 -7 -16 -16 -37 -19 -66 -12 -77 -17 -62
-27 10 -6 7 -9 -12 -9 -14 0 -52 -10 -85 -21 -52 -19 -84 -22 -278 -25 -217
-4 -286 -13 -286 -39 0 -20 -47 -22 -645 -24 -308 -1 -629 -4 -714 -7 -103 -5
-152 -3 -147 4 3 5 -1 12 -9 16 -8 3 -15 10 -15 15 0 13 83 39 145 47 56 6 67
8 185 29 113 19 118 18 35 -10 -43 -14 -71 -29 -73 -39 -4 -21 6 -20 43 2 35
22 134 56 141 49 2 -2 -27 -17 -65 -33 -38 -16 -69 -33 -70 -39 -1 -7 200 -10
584 -10 388 0 585 3 585 10 0 6 30 19 68 30 61 17 92 34 92 49 0 3 -28 7 -62
7 -35 1 -76 5 -93 9 -17 5 8 6 60 3 50 -3 98 -10 107 -14 9 -5 29 -10 45 -10
20 -1 22 -3 8 -6 -11 -2 -30 -6 -42 -9 -13 -2 -23 -9 -23 -15 0 -7 21 -9 63
-5 122 11 167 18 167 27 0 16 67 39 107 38 34 -2 35 -2 8 -6 -16 -3 -35 -9
-42 -15 -7 -5 -16 -7 -22 -4 -12 8 -41 -3 -41 -16 0 -12 161 0 175 13 5 5 23
9 40 9 16 0 39 7 49 15 11 8 30 15 43 15 13 0 23 5 23 11 0 5 4 8 9 5 5 -3 11
1 15 9 4 10 18 15 48 13 37 -1 38 -2 11 -5z m140 -111 c15 -15 27 -31 27 -34
0 -17 -76 -28 -186 -28 l-124 0 0 45 0 45 128 0 c127 0 128 0 155 -28z m217
-257 c26 -17 66 -28 150 -40 99 -14 215 -42 310 -75 70 -25 341 -100 358 -100
12 0 24 -4 27 -10 3 -5 17 -10 29 -10 13 0 39 -7 57 -15 34 -14 34 -14 7 -15
-16 0 -27 -5 -25 -11 2 -13 -21 -18 -104 -23 -31 -2 -70 -7 -85 -10 -16 -3
-126 -10 -244 -16 -118 -6 -260 -13 -315 -16 -113 -7 -816 -6 -855 1 -14 2
-72 7 -130 11 -58 3 -108 8 -111 10 -3 2 -73 8 -155 14 -139 10 -190 13 -449
25 -55 2 -109 6 -120 9 -11 2 -54 7 -95 11 -85 8 -82 8 -170 28 -36 8 -130 25
-210 37 -80 12 -149 26 -155 30 -5 4 -26 10 -45 13 -19 3 -55 8 -80 12 -89 12
-200 49 -197 65 1 11 -11 17 -43 22 -25 4 304 4 730 0 426 -4 852 -7 945 -7
l170 0 85 39 85 38 249 4 c137 2 251 6 253 8 11 11 103 -9 133 -29z"/>
<path d="M2547 6803 c-3 -4 -8 -30 -13 -58 -5 -37 -9 -45 -14 -30 -4 11 -3 31
2 45 8 21 1 17 -39 -20 -26 -25 -48 -45 -49 -45 -1 0 3 -24 10 -54 11 -50 13
-52 23 -30 l12 24 0 -29 c1 -24 3 -27 16 -16 9 7 15 20 14 29 -3 32 2 35 16
11 9 -16 15 -19 15 -10 3 33 19 -27 19 -71 1 -32 6 -49 16 -53 8 -3 15 -1 15
4 0 16 24 6 37 -15 10 -17 11 -14 7 20 l-5 40 18 -28 c10 -15 22 -25 28 -23 5
2 20 -6 33 -17 35 -33 27 2 -10 40 -17 18 -29 35 -26 39 4 3 14 -6 23 -20 28
-42 35 -30 13 22 -26 61 -154 256 -161 245z"/>
</g>
</svg>
